<?xml version="1.0" encoding="UTF-8" standalone="no"?>
<!DOCTYPE svg PUBLIC "-//W3C//DTD SVG 1.1//EN" "http://www.w3.org/Graphics/SVG/1.1/DTD/svg11.dtd">
<svg width="100%" height="100%" viewBox="0 0 2100 2100" version="1.1" xmlns="http://www.w3.org/2000/svg" xmlns:xlink="http://www.w3.org/1999/xlink" xml:space="preserve" xmlns:serif="http://www.serif.com/" style="fill-rule:evenodd;clip-rule:evenodd;stroke-linejoin:round;stroke-miterlimit:2;">
    <rect id="Artboard1" x="0" y="0" width="2100" height="2100" style="fill:none;"/>
    <g id="Artboard11" serif:id="Artboard1">
        <g transform="matrix(1,0,0,1,0,-125.314941)">
            <g transform="matrix(12.033307,0,0,12.033307,-1927.230092,-3727.240911)">
                <path d="M218.816,379.454C218.638,379.215 218.299,379.165 218.061,379.344C217.821,379.522 217.771,379.861 217.95,380.101L219.644,382.371L218.762,388.422C218.72,388.717 218.925,388.99 219.22,389.032C219.516,389.074 219.79,388.869 219.831,388.574L220.745,382.303C220.766,382.156 220.726,382.015 220.644,381.903L218.816,379.454Z" style="fill:rgb(53,53,53);fill-rule:nonzero;"/>
            </g>
            <g transform="matrix(12.033307,0,0,12.033307,-1927.230092,-3727.240911)">
                <path d="M204.059,379.487C203.934,379.581 203.86,379.719 203.844,379.862L202.71,387.648L198.242,389.428C197.966,389.537 197.831,389.851 197.939,390.127C198.05,390.403 198.363,390.538 198.639,390.429L203.013,388.688L206.063,392.776C206.154,392.901 206.292,392.975 206.437,392.99L214.532,394.17C214.679,394.191 214.82,394.15 214.932,394.068L218.899,391.11C219.139,390.931 219.188,390.593 219.01,390.354C218.831,390.114 218.493,390.064 218.253,390.244L214.464,393.069L206.795,391.951L203.767,387.89L204.884,380.221L208.946,377.191L216.354,378.271C216.648,378.313 216.923,378.108 216.965,377.813C217.007,377.519 216.801,377.244 216.506,377.202L208.878,376.09C208.731,376.069 208.589,376.109 208.479,376.191L204.059,379.487Z" style="fill:rgb(53,53,53);fill-rule:nonzero;"/>
            </g>
            <g transform="matrix(12.033307,0,0,12.033307,-1927.230092,-3727.240911)">
                <path d="M218.475,376.699L220.569,374.047C220.754,373.813 220.714,373.475 220.481,373.291C220.247,373.106 219.909,373.146 219.725,373.379L217.63,376.032C217.445,376.266 217.485,376.604 217.719,376.788C217.952,376.973 218.291,376.933 218.475,376.699Z" style="fill:rgb(53,53,53);fill-rule:nonzero;"/>
            </g>
            <g transform="matrix(12.033307,0,0,12.033307,-1927.230092,-3727.240911)">
                <path d="M202.468,379.096C202.701,379.28 203.041,379.24 203.224,379.007C203.409,378.774 203.368,378.435 203.136,378.251L200.878,376.468C200.646,376.284 200.306,376.323 200.122,376.557C199.937,376.79 199.978,377.128 200.21,377.313L202.468,379.096Z" style="fill:rgb(53,53,53);fill-rule:nonzero;"/>
            </g>
            <g transform="matrix(12.033307,0,0,12.033307,-1927.230092,-3727.240911)">
                <path d="M215.817,395.215C215.707,394.938 215.394,394.804 215.117,394.912C214.841,395.022 214.706,395.336 214.815,395.612L216.011,398.614C216.12,398.891 216.434,399.026 216.71,398.916C216.985,398.808 217.121,398.494 217.012,398.218L215.817,395.215Z" style="fill:rgb(53,53,53);fill-rule:nonzero;"/>
            </g>
            <g transform="matrix(12.033307,0,0,12.033307,-1927.230092,-3727.240911)">
                <path d="M222.472,381.906L225.216,380.814C225.491,380.705 225.627,380.392 225.518,380.115C225.408,379.839 225.095,379.703 224.817,379.813L222.073,380.905C221.798,381.016 221.662,381.329 221.772,381.604C221.881,381.881 222.194,382.017 222.472,381.906Z" style="fill:rgb(53,53,53);fill-rule:nonzero;"/>
            </g>
            <g transform="matrix(12.033307,0,0,12.033307,-1927.230092,-3727.240911)">
                <path d="M204.621,393.959L202.896,396.142C202.713,396.375 202.752,396.714 202.985,396.898C203.218,397.082 203.558,397.043 203.741,396.81L205.466,394.626C205.65,394.393 205.61,394.054 205.377,393.87C205.144,393.685 204.806,393.726 204.621,393.959Z" style="fill:rgb(53,53,53);fill-rule:nonzero;"/>
            </g>
            <g transform="matrix(12.033307,0,0,12.033307,-1927.230092,-3727.240911)">
                <path d="M323.183,386.61C322.911,389.096 322.192,391.782 321.012,394.628C321.239,391.171 320.492,388.384 319.251,386.182C317.599,383.247 315.081,381.37 312.829,380.32C311.938,379.905 311.079,379.617 310.327,379.441C310.129,379.395 309.933,379.41 309.752,379.469C306.513,378.89 302.372,379.514 297.889,380.876C290.773,383.039 282.716,387.027 276.316,390.773C273.337,392.518 270.718,394.206 268.72,395.633C268.009,396.141 267.28,396.679 266.542,397.242C266.076,397.599 265.594,397.976 265.105,398.363C263.713,397.182 262.224,396.042 260.66,394.948C270.739,387.396 282.059,381.032 292.928,377.591C302.22,374.65 311.148,373.864 318.627,376.315C321.428,379.938 323.468,384.009 323.183,386.61ZM294.593,425.392C285.244,432.655 274.554,438.525 264.664,442.19C261.919,443.208 259.243,444.049 256.677,444.708C253.887,444.951 250.904,444.797 248.221,444.109C246.115,443.569 244.205,442.702 242.747,441.448C241.78,440.616 241.02,439.602 240.529,438.395C244.089,441.157 251.572,439.698 260.54,435.712C265.377,433.563 270.675,430.695 276.015,427.394C281.37,424.082 286.758,420.344 291.753,416.465C305.915,405.467 317.064,393.09 316.056,385.389C316.534,385.942 316.981,386.553 317.367,387.238C318.771,389.731 319.428,393.146 318.366,397.699C318.012,399.222 317.45,400.881 316.673,402.668C316.1,403.539 315.488,404.42 314.835,405.31C310.168,411.677 303.493,418.477 294.593,425.392ZM240.022,445.795C237.135,445.08 234.049,441.843 231.76,438.008C231.581,437.708 231.409,437.404 231.241,437.1C231.386,432.258 233.137,426.94 236.166,421.512C239.337,415.829 243.901,410.046 249.449,404.567C251.263,405.646 252.938,406.75 254.436,407.855C252.254,410.016 250.126,412.266 248.176,414.533C246.169,416.867 244.344,419.22 242.825,421.502C240.801,424.546 239.312,427.484 238.644,430.123C238.589,430.337 238.549,430.547 238.505,430.757C238.408,430.875 238.333,431.014 238.292,431.172C237.729,433.361 237.633,435.294 237.907,436.989C238.323,439.554 239.57,441.562 241.345,443.088C243.062,444.565 245.274,445.577 247.688,446.197C247.768,446.218 247.851,446.231 247.931,446.251C244.951,446.489 242.276,446.353 240.022,445.795ZM219.186,427.93C216.5,427.298 213.815,426.563 211.167,425.725C200.796,422.442 192.479,418.521 186.124,414.319C185.729,414.058 185.342,413.795 184.962,413.531C184.944,413.221 184.807,412.92 184.537,412.723C182.422,411.162 180.519,408.838 179.257,406.295C178.36,404.484 177.796,402.577 177.726,400.775C177.663,399.19 177.991,397.688 178.814,396.41C179.144,397.133 179.632,397.896 180.214,398.657C181.969,400.955 184.595,403.387 185.545,404.172C190.63,408.374 197.172,412.042 204.36,415.017C211.575,418.003 219.444,420.282 227.144,421.717C226.632,423.123 226.224,424.505 225.949,425.85C225.74,426.873 225.726,428.036 225.865,429.276C223.655,428.892 221.427,428.457 219.186,427.93ZM172.319,400.191C171.807,399.164 171.602,397.873 171.625,396.466C171.645,396.41 171.662,396.355 171.673,396.296C172.298,392.715 175.284,389.929 179.04,387.915C183.973,385.27 190.158,383.978 194.287,383.924C194.183,385.412 194.274,386.934 194.571,388.453C191.933,388.656 187.472,389.41 184.011,390.5C182.006,391.132 180.292,391.918 179.299,392.85C178.501,393.431 177.827,394.081 177.297,394.799C175.995,396.564 175.484,398.664 175.571,400.86C175.65,402.879 176.243,404.975 177.184,406.954C175.057,404.697 173.436,402.426 172.319,400.191ZM178.083,383.252C180.79,381.667 183.697,380.597 186.804,379.897C189.521,379.286 192.401,378.972 195.425,378.837C195.058,379.782 194.776,380.762 194.578,381.764C190.161,381.765 183.386,383.14 178.026,386.014C176.28,386.949 174.683,388.048 173.345,389.31C174.542,386.633 176.239,384.332 178.083,383.252ZM199.751,370.554C200.042,370.032 200.534,369.619 201.159,369.439L201.165,369.438C201.681,369.291 202.204,369.328 202.665,369.508C202.884,369.594 203.087,369.715 203.271,369.859C201.927,370.602 200.701,371.5 199.622,372.538C199.599,372.475 199.566,372.422 199.547,372.354L199.545,372.346C199.366,371.718 199.458,371.078 199.751,370.554ZM218.941,372.144C222.261,373.993 224.878,377.114 226.001,381.064C227.125,385.015 226.542,389.045 224.691,392.366C224.469,392.766 224.226,393.154 223.967,393.532L221.009,391.218C220.774,391.035 220.436,391.076 220.253,391.312C220.069,391.545 220.111,391.885 220.346,392.067L223.317,394.393C221.452,396.733 218.873,398.545 215.771,399.427C211.82,400.551 207.79,399.968 204.469,398.117C201.147,396.268 198.531,393.146 197.408,389.196C196.285,385.246 196.868,381.216 198.718,377.894C200.324,375.011 202.89,372.661 206.125,371.357L207.562,374.966C207.671,375.242 207.985,375.378 208.261,375.269C208.536,375.159 208.673,374.846 208.563,374.569L207.143,371.002C207.31,370.949 207.47,370.883 207.64,370.834C211.59,369.71 215.619,370.293 218.941,372.144ZM224.489,372.97C225.117,372.792 225.757,372.884 226.281,373.176C226.804,373.467 227.216,373.959 227.396,374.584L227.397,374.591C227.547,375.115 227.507,375.648 227.319,376.114C227.233,376.324 227.114,376.518 226.975,376.695C226.232,375.351 225.333,374.124 224.294,373.045C224.345,373.026 224.389,372.998 224.44,372.983L224.489,372.97ZM244.659,423.438C245.324,423.437 245.992,423.438 246.635,423.418C247.567,423.391 248.449,423.348 249.273,423.289C250.927,423.172 256.189,422.453 260.042,421.21C261.54,420.727 262.845,420.135 263.745,419.427C263.93,420.624 263.86,421.882 263.377,423.111C262.838,424.482 261.78,425.842 259.986,427.082C257.972,428.477 255.047,429.703 250.948,430.623C247.872,430.894 244.573,430.976 241.132,430.871C241.142,430.831 241.147,430.793 241.158,430.752C241.714,428.556 242.959,426.063 244.659,423.438ZM256.475,409.48C257.911,410.716 259.738,412.435 261.101,414.09C262.2,415.423 262.973,416.631 262.859,417.273L262.854,417.312C262.684,417.906 261.243,418.556 259.384,419.156C255.722,420.338 250.7,421.022 249.121,421.135C248.252,421.196 247.403,421.239 246.576,421.264C246.433,421.268 246.284,421.265 246.14,421.268C247.339,419.603 248.691,417.906 250.144,416.217C252.111,413.928 254.266,411.655 256.475,409.48ZM243.014,398.693C237.989,396.282 232.586,394.157 227.49,392.569C228.062,391.357 228.497,390.08 228.78,388.759C228.825,388.775 228.87,388.793 228.92,388.803C235.55,390.183 250.488,395.239 260.265,403.777C266.271,409.022 270.294,415.584 269.069,423.385C269.026,423.666 269.098,423.938 269.247,424.154C268.697,424.855 268.082,425.471 267.384,425.944C265.785,427.028 263.785,427.933 261.475,428.664C263.494,427.202 264.729,425.57 265.388,423.896C266.085,422.127 266.137,420.336 265.81,418.666C265.445,416.81 264.607,415.104 263.675,413.757C263.583,413.624 263.466,413.523 263.335,413.446C263.155,413.205 262.967,412.963 262.767,412.721C261.078,410.672 258.743,408.543 257.165,407.242C257.131,407.194 257.096,407.145 257.053,407.101C256.931,406.974 256.788,406.879 256.635,406.813C256.518,406.72 256.392,406.619 256.288,406.54C252.724,403.822 248.064,401.117 243.014,398.693ZM228.483,426.367C229.231,422.711 230.998,418.726 233.55,414.611C236.223,410.307 239.757,405.868 243.885,401.522C245.132,402.149 246.347,402.795 247.519,403.45C242.019,408.945 237.474,414.744 234.282,420.464C231.85,424.822 230.194,429.143 229.475,433.254C228.528,430.681 228.107,428.21 228.483,426.367ZM223.788,397.723C223.813,397.786 223.845,397.842 223.863,397.91L223.865,397.915C224.044,398.542 223.951,399.182 223.659,399.706C223.368,400.229 222.874,400.644 222.248,400.822L222.245,400.823C221.747,400.965 221.238,400.934 220.785,400.766C220.55,400.679 220.331,400.557 220.136,400.402C221.481,399.661 222.708,398.762 223.788,397.723ZM196.09,394.149C196.174,393.939 196.294,393.744 196.436,393.566C197.177,394.909 198.074,396.134 199.111,397.212C199.047,397.236 198.991,397.271 198.924,397.289L198.921,397.29C198.293,397.469 197.653,397.377 197.129,397.084C196.605,396.794 196.192,396.3 196.014,395.673L196.013,395.67C195.863,395.146 195.902,394.615 196.09,394.149ZM180.541,394.68C180.547,394.646 180.575,394.61 180.59,394.575C180.971,394.3 181.38,394.037 181.848,393.806C182.025,393.719 182.164,393.586 182.266,393.433C182.933,393.142 183.748,392.848 184.653,392.563C188.176,391.453 192.739,390.708 195.141,390.576C195.196,390.746 195.253,390.915 195.313,391.082C194.587,391.629 194.021,392.354 193.687,393.187C193.299,394.149 193.21,395.24 193.499,396.313C193.51,396.358 193.521,396.403 193.537,396.447C193.921,397.727 194.782,398.74 195.87,399.347C196.959,399.952 198.273,400.151 199.563,399.804C199.608,399.794 199.653,399.781 199.696,399.766C200.049,399.66 200.383,399.518 200.696,399.343L200.774,399.294C200.916,399.212 201.048,399.122 201.177,399.029C201.828,399.521 202.499,399.982 203.211,400.379C207.114,402.554 211.847,403.24 216.481,401.922L216.494,401.918C216.894,401.804 217.276,401.66 217.661,401.521C218.237,402.287 219.007,402.874 219.883,403.2C220.813,403.545 221.857,403.613 222.888,403.336C222.934,403.326 222.979,403.313 223.021,403.298C224.301,402.915 225.313,402.054 225.921,400.964C226.527,399.877 226.726,398.562 226.378,397.272C226.368,397.227 226.356,397.182 226.341,397.139C226.244,396.817 226.114,396.508 225.957,396.214C225.853,396.019 225.73,395.837 225.603,395.659C225.888,395.282 226.157,394.895 226.412,394.496C231.342,396.005 236.567,398.036 241.446,400.339C237.448,404.612 233.999,408.982 231.35,413.253C230.002,415.425 228.86,417.572 227.952,419.671C220.255,418.269 212.38,416.002 205.18,413.022C198.193,410.131 191.844,406.574 186.922,402.507C186.029,401.769 183.564,399.487 181.929,397.347C181.063,396.215 180.45,395.193 180.541,394.68ZM312.804,383.956C312.886,384.071 312.959,384.183 313.022,384.291C316.499,390.231 304.958,402.924 290.16,414.417C285.199,418.27 279.892,421.954 274.654,425.193C269.399,428.442 264.207,431.255 259.496,433.349C250.464,437.363 243.352,438.821 241.464,435.612C241.094,434.984 240.897,434.258 240.851,433.451C246.623,433.639 252.042,433.317 256.741,432.473C261.665,431.587 265.827,430.126 268.834,428.084C271.805,426.066 273.688,422.363 274.399,418.427C275.141,414.323 274.616,409.905 272.728,406.863C271.267,404.511 269.335,402.257 267.072,400.121C267.42,399.848 267.773,399.562 268.115,399.301C268.853,398.737 269.557,398.216 270.221,397.742C272.177,396.345 274.73,394.698 277.625,393.004C283.882,389.342 291.739,385.447 298.64,383.351C305.135,381.376 310.675,380.975 312.804,383.956ZM254.339,393.968C261.208,398.019 267.21,402.891 270.526,408.232C272.077,410.729 272.489,414.454 271.854,417.971C271.743,418.583 271.591,419.181 271.418,419.768C271.135,412.838 267.188,406.96 261.685,402.155C251.576,393.327 236.186,388.11 229.359,386.69C229.271,386.672 229.181,386.668 229.094,386.672C229.184,385.661 229.186,384.634 229.094,383.6C236.683,385.475 246.11,389.117 254.339,393.968ZM284.019,373.321C293.252,369.453 302.152,367.598 309.376,368.881C311.321,369.226 313.793,371.014 316.119,373.416C308.901,371.908 300.712,372.859 292.277,375.529C280.968,379.109 269.188,385.78 258.769,393.672C257.755,393.009 256.717,392.362 255.657,391.737C255.409,391.591 255.155,391.449 254.904,391.304C263.889,383.914 274.124,377.466 284.019,373.321ZM320.624,374.656C317.372,370.471 313.129,366.912 309.822,366.325C302.083,364.951 292.69,366.879 283.024,370.928C272.605,375.293 261.833,382.138 252.479,389.951C244.502,385.676 235.809,382.494 228.806,380.86C228.743,380.846 228.683,380.842 228.62,380.836C228.58,380.676 228.542,380.515 228.497,380.354L228.493,380.342C228.379,379.943 228.235,379.562 228.097,379.177C228.823,378.63 229.388,377.907 229.722,377.078C230.11,376.114 230.2,375.022 229.911,373.949C229.9,373.903 229.888,373.857 229.872,373.813C229.49,372.534 228.628,371.521 227.539,370.914C226.45,370.308 225.137,370.109 223.847,370.457C223.792,370.469 223.737,370.485 223.685,370.505C223.353,370.605 223.04,370.739 222.749,370.898C222.567,370.999 222.396,371.111 222.23,371.23C221.58,370.739 220.909,370.278 220.198,369.882C216.295,367.707 211.563,367.021 206.929,368.339C206.524,368.453 206.138,368.598 205.75,368.739C205.193,368 204.455,367.426 203.608,367.094C202.656,366.722 201.581,366.64 200.523,366.924C200.479,366.935 200.432,366.947 200.389,366.963C199.109,367.346 198.096,368.207 197.488,369.297C196.883,370.385 196.684,371.698 197.031,372.987C197.042,373.033 197.054,373.078 197.069,373.122C197.172,373.466 197.314,373.798 197.489,374.111C197.586,374.284 197.69,374.449 197.804,374.605C197.419,375.115 197.06,375.643 196.733,376.191C193.034,376.287 189.537,376.631 186.235,377.372C182.883,378.126 179.73,379.291 176.775,381.021C173.956,382.672 171.483,386.416 170.138,390.414C168.836,394.283 168.561,398.468 169.998,401.348C172.542,406.443 177.403,411.658 184.693,416.479C191.248,420.812 199.785,424.844 210.386,428.199C213.078,429.051 215.827,429.803 218.597,430.455C221.17,431.06 223.776,431.567 226.388,431.998C227.03,434.425 228.137,436.985 229.538,439.336C232.143,443.699 235.802,447.419 239.403,448.31C245.894,449.915 255.345,448.409 265.558,444.624C275.688,440.869 286.63,434.864 296.186,427.44C305.274,420.377 312.116,413.399 316.925,406.841C322.271,399.549 325.118,392.744 325.759,386.885C326.122,383.564 323.812,378.76 320.624,374.656Z" style="fill:rgb(53,53,53);fill-rule:nonzero;"/>
            </g>
        </g>
    </g>
</svg>
